<svg width="2490" height="1825" viewBox="0 0 2490 1825" fill="none" xmlns="http://www.w3.org/2000/svg">
<rect x="2027.05" y="586" width="719" height="1070" rx="180" transform="rotate(49.9478 2027.05 586)" fill="#EDB33C"/>
<rect x="185.912" y="78" width="424.222" height="578.315" rx="82" transform="rotate(8.24278 185.912 78)" fill="#EDB33C"/>
<ellipse cx="2247" cy="1659" rx="19" ry="18" fill="#F0A502"/>
<ellipse cx="2316" cy="1726" rx="19" ry="18" fill="#F0A502"/>
<ellipse cx="2375" cy="1631" rx="19" ry="18" fill="#F0A502"/>
<ellipse cx="2310" cy="1677" rx="13" ry="12" fill="#0C0D0E"/>
<ellipse cx="2215" cy="1703" rx="13" ry="12" fill="#0C0D0E"/>
<ellipse cx="2202" cy="1756" rx="13" ry="12" fill="#0C0D0E"/>
<ellipse cx="57.9995" cy="46" rx="19" ry="18" fill="#F0A502"/>
<ellipse cx="127" cy="113" rx="19" ry="18" fill="#F0A502"/>
<ellipse cx="186" cy="18" rx="19" ry="18" fill="#F0A502"/>
<ellipse cx="121" cy="64" rx="13" ry="12" fill="#0C0D0E"/>
<ellipse cx="25.9995" cy="90" rx="13" ry="12" fill="#0C0D0E"/>
<ellipse cx="13" cy="143" rx="13" ry="12" fill="#0C0D0E"/>
</svg>
