<svg width="55" height="24" viewBox="0 0 55 24" fill="none" xmlns="http://www.w3.org/2000/svg">
<path d="M8.304 6.768V8.96H3.728V11.328H7.152V13.456H3.728V18H0.992V6.768H8.304ZM13.806 18.128C12.9313 18.128 12.142 17.9413 11.438 17.568C10.7447 17.1947 10.1953 16.6613 9.79 15.968C9.39533 15.2747 9.198 14.464 9.198 13.536C9.198 12.6187 9.40067 11.8133 9.806 11.12C10.2113 10.416 10.766 9.87733 11.47 9.504C12.174 9.13067 12.9633 8.944 13.838 8.944C14.7127 8.944 15.502 9.13067 16.206 9.504C16.91 9.87733 17.4647 10.416 17.87 11.12C18.2753 11.8133 18.478 12.6187 18.478 13.536C18.478 14.4533 18.27 15.264 17.854 15.968C17.4487 16.6613 16.8887 17.1947 16.174 17.568C15.47 17.9413 14.6807 18.128 13.806 18.128ZM13.806 15.76C14.3287 15.76 14.7713 15.568 15.134 15.184C15.5073 14.8 15.694 14.2507 15.694 13.536C15.694 12.8213 15.5127 12.272 15.15 11.888C14.798 11.504 14.3607 11.312 13.838 11.312C13.3047 11.312 12.862 11.504 12.51 11.888C12.158 12.2613 11.982 12.8107 11.982 13.536C11.982 14.2507 12.1527 14.8 12.494 15.184C12.846 15.568 13.2833 15.76 13.806 15.76ZM23.9935 18.128C23.1188 18.128 22.3295 17.9413 21.6255 17.568C20.9322 17.1947 20.3828 16.6613 19.9775 15.968C19.5828 15.2747 19.3855 14.464 19.3855 13.536C19.3855 12.6187 19.5882 11.8133 19.9935 11.12C20.3988 10.416 20.9535 9.87733 21.6575 9.504C22.3615 9.13067 23.1508 8.944 24.0255 8.944C24.9002 8.944 25.6895 9.13067 26.3935 9.504C27.0975 9.87733 27.6522 10.416 28.0575 11.12C28.4628 11.8133 28.6655 12.6187 28.6655 13.536C28.6655 14.4533 28.4575 15.264 28.0415 15.968C27.6362 16.6613 27.0762 17.1947 26.3615 17.568C25.6575 17.9413 24.8682 18.128 23.9935 18.128ZM23.9935 15.76C24.5162 15.76 24.9588 15.568 25.3215 15.184C25.6948 14.8 25.8815 14.2507 25.8815 13.536C25.8815 12.8213 25.7002 12.272 25.3375 11.888C24.9855 11.504 24.5482 11.312 24.0255 11.312C23.4922 11.312 23.0495 11.504 22.6975 11.888C22.3455 12.2613 22.1695 12.8107 22.1695 13.536C22.1695 14.2507 22.3402 14.8 22.6815 15.184C23.0335 15.568 23.4708 15.76 23.9935 15.76ZM29.573 13.52C29.573 12.6027 29.7437 11.7973 30.085 11.104C30.437 10.4107 30.9117 9.87733 31.509 9.504C32.1063 9.13067 32.773 8.944 33.509 8.944C34.0957 8.944 34.629 9.06667 35.109 9.312C35.5997 9.55733 35.9837 9.888 36.261 10.304V6.16H38.997V18H36.261V16.72C36.005 17.1467 35.637 17.488 35.157 17.744C34.6877 18 34.1383 18.128 33.509 18.128C32.773 18.128 32.1063 17.9413 31.509 17.568C30.9117 17.184 30.437 16.6453 30.085 15.952C29.7437 15.248 29.573 14.4373 29.573 13.52ZM36.261 13.536C36.261 12.8533 36.069 12.3147 35.685 11.92C35.3117 11.5253 34.853 11.328 34.309 11.328C33.765 11.328 33.301 11.5253 32.917 11.92C32.5437 12.304 32.357 12.8373 32.357 13.52C32.357 14.2027 32.5437 14.7467 32.917 15.152C33.301 15.5467 33.765 15.744 34.309 15.744C34.853 15.744 35.3117 15.5467 35.685 15.152C36.069 14.7573 36.261 14.2187 36.261 13.536ZM50.0964 9.072L44.4964 22.24H41.5524L43.6004 17.696L39.9684 9.072H43.0244L45.0884 14.656L47.1364 9.072H50.0964Z" fill="white"/>
<circle cx="52.5" cy="16.5" r="2.5" fill="#FF7A00"/>
</svg>
